Coordinates
version=1
nRows=7
nColumns=40
inDegrees=yes

Units are S.I. units (second, meters, Newtons, ...)
If the header above contains a line with 'inDegrees', this indicates whether rotational values are in degrees (yes) or radians (no).

endheader
time	pelvis_tilt	pelvis_list	pelvis_rotation	pelvis_tx	pelvis_ty	pelvis_tz	hip_flexion_r	hip_adduction_r	hip_rotation_r	knee_angle_r	knee_angle_r_beta	ankle_angle_r	subtalar_angle_r	mtp_angle_r	hip_flexion_l	hip_adduction_l	hip_rotation_l	knee_angle_l	knee_angle_l_beta	ankle_angle_l	subtalar_angle_l	mtp_angle_l	lumbar_extension	lumbar_bending	lumbar_rotation	arm_flex_r	arm_add_r	arm_rot_r	elbow_flex_r	pro_sup_r	wrist_flex_r	wrist_dev_r	arm_flex_l	arm_add_l	arm_rot_l	elbow_flex_l	pro_sup_l	wrist_flex_l	wrist_dev_l
     15.30000000	     10.32227009	     -3.73295611	   -179.54030219	      0.26498232	      0.66521793	     -0.96127361	     76.01034175	    -49.53063199	      0.04125217	     73.76820835	      1.28749812	      4.24562518	      0.00000000	      0.00000000	     65.81860380	    -45.35421912	     -8.62838432	     72.41172212	      1.26382297	      7.34447504	      0.00000000	      0.00000000	    -60.29141120	     -0.90205830	     -1.88663696	     51.22940963	    -11.74010413	     36.28223448	      5.03147621	     57.96704480	      0.00000000	      0.00000000	     59.92123664	    -16.13575086	     51.89273959	     19.93199723	     80.43642945	      0.00000000	      0.00000000
     15.30500000	     10.44006280	     -3.72539684	   -179.52311727	      0.26513445	      0.66509925	     -0.96122383	     76.12374267	    -49.51842093	      0.03723798	     73.73892196	      1.28698698	      4.16895016	      0.00000000	      0.00000000	     66.00629814	    -45.31251876	     -8.52698296	     72.41043713	      1.26380054	      7.21122514	      0.00000000	      0.00000000	    -60.17703032	     -0.90165084	     -1.83670288	     51.11774760	    -11.84815623	     36.42829221	      5.19109287	     57.58643323	      0.00000000	      0.00000000	     59.82167211	    -16.11271038	     51.81570216	     20.12011052	     79.50005967	      0.00000000	      0.00000000
     15.31000000	     10.33633344	     -3.80124475	   -179.54444867	      0.26517588	      0.66543491	     -0.96124448	     76.06133911	    -49.53232088	      0.10170858	     73.69610185	      1.28623962	      4.21405670	      0.00000000	      0.00000000	     65.73006768	    -45.28820780	     -8.72549255	     72.34612580	      1.26267810	      7.30985590	      0.00000000	      0.00000000	    -60.30148919	     -0.94467636	     -1.96641944	     51.22050047	    -11.68046102	     36.52524953	      5.06489604	     57.24210863	      0.00000000	      0.00000000	     59.89581929	    -16.13083897	     51.90730113	     19.99797254	     79.03206847	      0.00000000	      0.00000000
     15.31500000	     10.47430670	     -3.76540691	   -179.52204800	      0.26536142	      0.66501785	     -0.96113249	     76.23197008	    -49.52166782	      0.11394487	     73.74109096	      1.28702483	      4.19015976	      0.00000000	      0.00000000	     66.04619411	    -45.25707085	     -8.51934133	     72.44020977	      1.26432017	      7.21645346	      0.00000000	      0.00000000	    -60.13437986	     -0.93018702	     -1.83086372	     51.02005884	    -11.91937581	     36.64324191	      5.37525467	     56.89934570	      0.00000000	      0.00000000	     59.76767052	    -16.11541527	     51.80767558	     20.28847882	     78.22624162	      0.00000000	      0.00000000
     15.32000000	     10.26779556	     -3.91376505	   -179.56372960	      0.26533553	      0.66574652	     -0.96121754	     76.07817735	    -49.54483078	      0.24454118	     73.62910556	      1.28507032	      4.27133144	      0.00000000	      0.00000000	     65.44533985	    -45.24818885	     -9.00753912	     72.25641418	      1.26111233	      7.34307470	      0.00000000	      0.00000000	    -60.39302134	     -1.02962820	     -2.02098582	     51.22234308	    -11.69099514	     36.53755531	      5.14303331	     56.69891325	      0.00000000	      0.00000000	     59.95214248	    -16.14887055	     52.12901383	     20.02542387	     78.60056433	      0.00000000	      0.00000000
     15.32500000	     10.31782410	     -3.89723963	   -179.55021648	      0.26550000	      0.66558464	     -0.96115424	     76.13675884	    -49.53725287	      0.24505901	     73.63215980	      1.28512362	      4.17022001	      0.00000000	      0.00000000	     65.59468246	    -45.22673368	     -8.89478333	     72.30020735	      1.26187667	      7.24642358	      0.00000000	      0.00000000	    -60.32897142	     -1.01206204	     -2.03432157	     51.19601719	    -11.69162530	     36.69678801	      5.16788520	     56.43537858	      0.00000000	      0.00000000	     59.90406410	    -16.17864229	     52.13871275	     20.07865236	     78.19019890	      0.00000000	      0.00000000
     15.33000000	     10.28742093	     -3.90438121	   -179.54855399	      0.26563235	      0.66559226	     -0.96109269	     76.12080483	    -49.53740877	      0.26792638	     73.62873684	      1.28506388	      4.17373510	      0.00000000	      0.00000000	     65.56998135	    -45.22108922	     -8.90658348	     72.31277186	      1.26209596	      7.24514483	      0.00000000	      0.00000000	    -60.34375039	     -1.00936630	     -2.05062496	     51.19315334	    -11.68627481	     36.83747360	      5.18451995	     56.16089480	      0.00000000	      0.00000000	     59.88402390	    -16.19637394	     52.19201291	     20.08340226	     77.81456696	      0.00000000	      0.00000000
